<svg width="1204" height="1165" viewBox="0 0 1204 1165" fill="none" xmlns="http://www.w3.org/2000/svg">
<g filter="url(#filter0_d_309_43)">
<path d="M338.8 375.2C368.133 376.8 395.867 386.666 422 404.8C448.133 422.4 469.2 444.533 485.2 471.2C501.2 497.333 509.2 523.467 509.2 549.6C509.2 624.267 480.667 681.067 423.6 720C366.533 758.933 287.067 778.4 185.2 778.4L168.4 777.6C166.8 785.067 166 791.467 166 796.8C164.4 803.2 161.467 808.533 157.2 812.8C152.933 817.6 148.4 820 143.6 820C134.533 820 129.467 814.667 128.4 804C129.467 793.333 131.333 782.667 134 772L110.8 767.2C89.9999 763.466 76.3999 759.2 69.9999 754.4C63.5999 749.067 60.3999 742.666 60.3999 735.2C60.3999 732 61.9999 728.8 65.1999 725.6C68.3999 721.867 71.3332 720 73.9999 720C75.5999 720 81.1999 721.6 90.7999 724.8C100.933 728 109.733 730.666 117.2 732.8C124.133 734.4 132.4 735.2 142 735.2L219.6 397.6L195.6 396.8C187.6 396.8 183.6 392.266 183.6 383.2C183.6 370.4 198 364 226.8 364C235.867 326.666 244.933 280.266 254 224.8C259.867 186.933 265.467 154.666 270.8 128C276.667 101.333 284.133 74.1332 293.2 46.3998C288.4 48.5331 280.4 54.1332 269.2 63.1998C265.467 66.9331 261.467 70.3998 257.2 73.5998C252.933 76.2665 249.2 77.5998 246 77.5998C242.8 77.5998 239.6 76.2665 236.4 73.5998C233.733 70.9332 232.4 66.9332 232.4 61.5998C232.4 49.8665 239.867 39.1998 254.8 29.5998C269.733 19.9998 287.867 13.0665 309.2 8.7998C312.4 3.46648 316.4 0.799805 321.2 0.799805C325.467 0.799805 329.733 2.93315 334 7.19983C383.6 8.79981 423.333 25.8665 453.2 58.3998C483.067 90.9332 498 134.133 498 188C498 216.8 490.267 245.066 474.8 272.8C459.867 300 440.133 322.933 415.6 341.6C391.067 360.267 365.467 371.467 338.8 375.2ZM326 41.5998C316.933 71.9998 309.733 101.066 304.4 128.8C299.067 156.533 293.2 190.133 286.8 229.6C285.2 237.6 282 255.467 277.2 283.2C272.933 310.4 267.867 337.066 262 363.2C297.733 363.2 330.533 355.467 360.4 340C390.8 324 414.8 302.666 432.4 276C450 249.333 458.8 220.267 458.8 188.8C458.8 141.867 446.8 105.866 422.8 80.7998C398.8 55.7331 366.533 42.6665 326 41.5998ZM206.8 742.4C262.8 742.4 310.533 734.933 350 720C390 704.533 420.4 682.667 441.2 654.4C462 626.133 472.4 592.8 472.4 554.4C472.4 528.266 463.867 503.467 446.8 480C430.267 456 408.4 436.8 381.2 422.4C354 408 325.733 400.8 296.4 400.8C279.333 400.8 265.2 400.267 254 399.2C245.467 436.533 232.4 493.866 214.8 571.2C197.2 648 184.133 704.533 175.6 740.8C185.2 741.867 195.6 742.4 206.8 742.4Z" fill="#00DEFF"/>
</g>
<g filter="url(#filter1_d_309_43)">
<path d="M1035.4 1140.6C1028.47 1140.6 1023.93 1137.67 1021.8 1131.8C1019.67 1125.93 1018.6 1115 1018.6 1099V1064.6C1018.6 1021.4 1022.33 904.333 1029.8 713.4C1030.87 670.2 1032.2 627.8 1033.8 586.2C1035.4 544.6 1036.47 510.466 1037 483.8C1014.07 535 978.867 606.2 931.4 697.4C884.467 788.6 855.933 843.8 845.8 863C822.333 907.266 798.6 952.866 774.6 999.8C769.267 1011 762.6 1016.6 754.6 1016.6C747.133 1016.6 741.8 1012.87 738.6 1005.4L709.8 872.6C661.267 655.533 631.4 519.533 620.2 464.6C607.933 526.466 595.133 585.666 581.8 642.2C569 698.2 552.467 767.8 532.2 851C524.733 882.466 515.667 920.6 505 965.4C494.333 1010.2 482.067 1063 468.2 1123.8C462.333 1134.47 454.867 1139.8 445.8 1139.8C437.8 1139.8 433.267 1134.47 432.2 1123.8C441.267 1073.67 454.067 1011.8 470.6 938.2C487.133 864.6 503.667 793.133 520.2 723.8C536.733 653.933 547.667 607.266 553 583.8L601.8 376.6C603.4 371.266 606.333 366.733 610.6 363C615.4 359.266 619.933 357.4 624.2 357.4C631.133 357.4 635.933 361.933 638.6 371C647.667 410.466 669.533 509.933 704.2 669.4C725 773.4 743.933 860.866 761 931.8C786.067 889.133 817 832.066 853.8 760.6C890.6 689.133 940.2 591.8 1002.6 468.6C1018.6 435.533 1034.07 404.6 1049 375.8C1055.4 363 1063.13 356.6 1072.2 356.6C1080.73 356.6 1085 360.6 1085 368.6L1083.4 390.2C1068.47 644.066 1059.93 881.133 1057.8 1101.4C1059.4 1103.53 1060.2 1106.47 1060.2 1110.2C1060.2 1117.13 1057.53 1124.07 1052.2 1131C1047.4 1137.4 1041.8 1140.6 1035.4 1140.6Z" fill="#00DEFF"/>
</g>
<g filter="url(#filter2_d_309_43)">
<path d="M0 865.5C0 854.178 9.17816 845 20.5 845L1159.5 845C1170.82 845 1180 854.178 1180 865.5V865.5C1180 876.822 1170.82 886 1159.5 886L20.5 886C9.17819 886 0 876.822 0 865.5V865.5Z" fill="#00DEFF"/>
</g>
<defs>
<filter id="filter0_d_309_43" x="60.3999" y="0.799805" width="472.8" height="843.2" filterUnits="userSpaceOnUse" color-interpolation-filters="sRGB">
<feFlood flood-opacity="0" result="BackgroundImageFix"/>
<feColorMatrix in="SourceAlpha" type="matrix" values="0 0 0 0 0 0 0 0 0 0 0 0 0 0 0 0 0 0 127 0" result="hardAlpha"/>
<feOffset dx="24" dy="24"/>
<feComposite in2="hardAlpha" operator="out"/>
<feColorMatrix type="matrix" values="0 0 0 0 0 0 0 0 0 0.870588 0 0 0 0 1 0 0 0 0.5 0"/>
<feBlend mode="normal" in2="BackgroundImageFix" result="effect1_dropShadow_309_43"/>
<feBlend mode="normal" in="SourceGraphic" in2="effect1_dropShadow_309_43" result="shape"/>
</filter>
<filter id="filter1_d_309_43" x="432.2" y="356.6" width="676.8" height="808" filterUnits="userSpaceOnUse" color-interpolation-filters="sRGB">
<feFlood flood-opacity="0" result="BackgroundImageFix"/>
<feColorMatrix in="SourceAlpha" type="matrix" values="0 0 0 0 0 0 0 0 0 0 0 0 0 0 0 0 0 0 127 0" result="hardAlpha"/>
<feOffset dx="24" dy="24"/>
<feComposite in2="hardAlpha" operator="out"/>
<feColorMatrix type="matrix" values="0 0 0 0 0 0 0 0 0 0.870588 0 0 0 0 1 0 0 0 0.5 0"/>
<feBlend mode="normal" in2="BackgroundImageFix" result="effect1_dropShadow_309_43"/>
<feBlend mode="normal" in="SourceGraphic" in2="effect1_dropShadow_309_43" result="shape"/>
</filter>
<filter id="filter2_d_309_43" x="0" y="845" width="1204" height="65" filterUnits="userSpaceOnUse" color-interpolation-filters="sRGB">
<feFlood flood-opacity="0" result="BackgroundImageFix"/>
<feColorMatrix in="SourceAlpha" type="matrix" values="0 0 0 0 0 0 0 0 0 0 0 0 0 0 0 0 0 0 127 0" result="hardAlpha"/>
<feOffset dx="24" dy="24"/>
<feComposite in2="hardAlpha" operator="out"/>
<feColorMatrix type="matrix" values="0 0 0 0 0 0 0 0 0 0.870588 0 0 0 0 1 0 0 0 0.5 0"/>
<feBlend mode="normal" in2="BackgroundImageFix" result="effect1_dropShadow_309_43"/>
<feBlend mode="normal" in="SourceGraphic" in2="effect1_dropShadow_309_43" result="shape"/>
</filter>
</defs>
</svg>
