<svg width="200" height="200" viewBox="0 0 200 200" fill="none" xmlns="http://www.w3.org/2000/svg">
<path d="M100 79.1641C95.8794 79.1656 91.8517 80.3889 88.4263 82.6793C85.0009 84.9698 82.3315 88.2244 80.7557 92.0318C79.1799 95.8392 78.7683 100.028 79.5732 104.07C80.378 108.111 82.3631 111.823 85.2773 114.736C88.1916 117.649 91.9042 119.633 95.9458 120.436C99.9874 121.239 104.176 120.826 107.983 119.249C111.79 117.672 115.044 115.001 117.333 111.575C119.622 108.149 120.844 104.121 120.844 100C120.84 94.4739 118.642 89.1754 114.734 85.2686C110.825 81.3618 105.526 79.1661 100 79.1641ZM148.715 63.1484C147.654 60.4603 146.052 58.0188 144.009 55.9754C141.966 53.932 139.524 52.3302 136.836 51.2695C128.633 48.0313 109.102 48.7578 100 48.7578C90.8984 48.7578 71.3867 48.0039 63.1602 51.2695C60.472 52.3302 58.0305 53.932 55.9871 55.9754C53.9437 58.0188 52.342 60.4603 51.2812 63.1484C48.0469 71.3516 48.7695 90.9023 48.7695 99.9961C48.7695 109.09 48.0469 128.617 51.2969 136.848C52.3576 139.536 53.9593 141.977 56.0028 144.021C58.0462 146.064 60.4877 147.666 63.1758 148.727C71.3789 151.965 90.9102 151.238 100.016 151.238C109.121 151.238 128.625 151.992 136.852 148.727C139.54 147.666 141.981 146.064 144.025 144.021C146.068 141.977 147.67 139.536 148.73 136.848C151.992 128.645 151.242 109.094 151.242 100C151.242 90.9062 151.992 71.3828 148.73 63.1523L148.715 63.1484ZM100 132.031C93.6648 132.031 87.4719 130.153 82.2044 126.633C76.9369 123.113 72.8314 118.111 70.407 112.258C67.9826 106.405 67.3483 99.9645 68.5842 93.751C69.8202 87.5376 72.8708 81.8301 77.3505 77.3505C81.8301 72.8708 87.5376 69.8202 93.751 68.5842C99.9645 67.3483 106.405 67.9826 112.258 70.407C118.111 72.8314 123.113 76.9369 126.633 82.2044C130.153 87.4719 132.031 93.6648 132.031 100C132.036 104.208 131.211 108.375 129.603 112.264C127.996 116.152 125.636 119.686 122.661 122.661C119.686 125.636 116.152 127.996 112.264 129.603C108.375 131.211 104.208 132.036 100 132.031ZM133.352 74.1016C131.873 74.1023 130.427 73.6645 129.197 72.8434C127.967 72.0224 127.008 70.855 126.441 69.4889C125.875 68.1228 125.726 66.6194 126.014 65.1688C126.302 63.7182 127.014 62.3857 128.06 61.3397C129.105 60.2936 130.437 59.5812 131.888 59.2924C133.338 59.0036 134.842 59.1514 136.208 59.7172C137.574 60.283 138.742 61.2412 139.564 62.4708C140.386 63.7004 140.824 65.1461 140.824 66.625C140.828 67.6071 140.639 68.5803 140.266 69.4889C139.893 70.3974 139.344 71.2234 138.651 71.9195C137.959 72.6156 137.135 73.168 136.228 73.5452C135.322 73.9223 134.349 74.1167 133.367 74.1172L133.352 74.1016ZM168.75 12.5H31.25C26.2772 12.5 21.5081 14.4754 17.9917 17.9917C14.4754 21.5081 12.5 26.2772 12.5 31.25L12.5 168.75C12.5 173.723 14.4754 178.492 17.9917 182.008C21.5081 185.525 26.2772 187.5 31.25 187.5H168.75C173.723 187.5 178.492 185.525 182.008 182.008C185.525 178.492 187.5 173.723 187.5 168.75V31.25C187.5 26.2772 185.525 21.5081 182.008 17.9917C178.492 14.4754 173.723 12.5 168.75 12.5ZM162.063 125.781C161.559 135.793 159.273 144.664 151.965 151.953C144.656 159.242 135.793 161.574 125.793 162.051C115.477 162.633 84.5469 162.633 74.2305 162.051C64.2187 161.547 55.3789 159.258 48.0586 151.953C40.7383 144.648 38.4375 135.773 37.9609 125.781C37.3789 115.461 37.3789 84.5273 37.9609 74.2188C38.4648 64.207 40.7227 55.3359 48.0586 48.0469C55.3945 40.7578 64.2578 38.4531 74.2305 37.9766C84.5469 37.3945 115.477 37.3945 125.793 37.9766C135.805 38.4805 144.672 40.7695 151.965 48.0742C159.258 55.3789 161.586 64.2539 162.063 74.2656C162.645 84.5469 162.645 115.453 162.063 125.781Z" fill="white"/>
</svg>
