<svg width="200" height="200" viewBox="0 0 200 200" fill="none" xmlns="http://www.w3.org/2000/svg">
<path d="M175 12.5H24.9609C18.0859 12.5 12.5 18.1641 12.5 25.1172V174.883C12.5 181.836 18.0859 187.5 24.9609 187.5H175C181.875 187.5 187.5 181.836 187.5 174.883V25.1172C187.5 18.1641 181.875 12.5 175 12.5ZM65.3906 162.5H39.4531V78.9844H65.4297V162.5H65.3906ZM52.4219 67.5781C44.1016 67.5781 37.3828 60.8203 37.3828 52.5391C37.3828 44.2578 44.1016 37.5 52.4219 37.5C60.7031 37.5 67.4609 44.2578 67.4609 52.5391C67.4609 60.8594 60.7422 67.5781 52.4219 67.5781ZM162.617 162.5H136.68V121.875C136.68 112.188 136.484 99.7266 123.203 99.7266C109.687 99.7266 107.617 110.273 107.617 121.172V162.5H81.6797V78.9844H106.563V90.3906H106.914C110.391 83.8281 118.867 76.9141 131.484 76.9141C157.734 76.9141 162.617 94.2187 162.617 116.719V162.5Z" fill="white"/>
</svg>
