<svg width="200" height="200" viewBox="0 0 200 200" fill="none" xmlns="http://www.w3.org/2000/svg">
<path d="M37.5 12.5C23.7109 12.5 12.5 23.7109 12.5 37.5V162.5C12.5 176.289 23.7109 187.5 37.5 187.5H162.5C176.289 187.5 187.5 176.289 187.5 162.5V37.5C187.5 23.7109 176.289 12.5 162.5 12.5H37.5ZM153.555 45.3125L113.008 91.6406L160.703 154.688H123.359L94.1406 116.445L60.6641 154.688H42.1094L85.4688 105.117L39.7266 45.3125H78.0078L104.453 80.2734L135 45.3125H153.555ZM138.789 143.594L72.4219 55.8203H61.3672L128.477 143.594H138.75H138.789Z" fill="white"/>
</svg>
