<svg width="128" height="128" viewBox="0 0 128 128" fill="none" xmlns="http://www.w3.org/2000/svg">
<path d="M126.67 98.44C122.11 99.6 119.29 98.49 116.76 94.69C111.08 86.18 104.81 78.06 98.7598 69.79C97.9798 68.72 97.1698 67.67 96.1598 66.34C88.9998 76 81.8498 85.2 75.1398 94.77C72.7398 98.19 70.2198 99.68 65.7398 98.47L92.6598 62.34L67.5998 29.71C71.9098 28.87 74.8898 29.3 77.5298 33.16C83.3598 41.68 89.7898 49.79 96.1998 58.37C102.65 49.82 109 41.7 115 33.26C117.41 29.84 120 28.54 124.33 29.8C121.05 34.15 117.84 38.43 114.61 42.68C110.25 48.41 105.97 54.21 101.45 59.82C99.8398 61.82 100.1 63.12 101.54 65.01C109.9 76 118.16 87.1 126.67 98.44ZM1.3298 61.74C2.0498 58.13 2.5298 54.45 3.5298 50.91C9.5298 29.48 34.1298 20.57 51.0298 33.85C60.9298 41.64 63.3898 52.62 62.8998 65H7.0998C6.2598 87.21 22.2498 100.62 42.6298 93.78C49.7798 91.38 53.9898 85.78 56.0998 78.78C57.1698 75.27 58.9398 74.72 62.2398 75.72C60.5498 84.48 56.7198 91.8 48.7198 96.38C36.7198 103.24 19.5898 101.02 10.5798 91.49C5.2598 85.89 2.9998 78.92 1.9998 71.39C1.8498 70.19 1.5398 69.01 1.2998 67.82C1.3198 65.7933 1.3298 63.7666 1.3298 61.74ZM7.1998 60.25H57.6298C57.2998 44.19 47.2998 32.78 33.6298 32.68C18.6298 32.56 7.8498 43.7 7.1998 60.25Z" fill="white"/>
</svg>
