<svg width="128" height="128" viewBox="0 0 128 128" fill="none" xmlns="http://www.w3.org/2000/svg">
<path d="M44.4398 100.63C40.2098 97.3 35.6998 94.11 32.6098 89.62C26.1198 81.7 21.1198 72.52 17.7098 62.88C15.6398 56.61 14.9398 49.89 12.2698 43.86C9.48982 39.48 12.7498 34.7 17.5398 33.31C19.6698 32.9 23.4298 30.88 18.8998 32.33C14.8398 35.31 14.4498 29.62 18.6098 29.26C21.4498 28.88 22.4998 26.56 21.5298 24.46C18.4798 22.47 28.9298 20.28 23.6698 17.31C18.1898 11.4 31.3298 10.26 28.0898 16.98C27.3198 22.14 37.2698 16.03 34.9598 21.99C37.3098 24.85 43.7598 22.64 43.5898 26.66C47.0098 26.9 48.1898 29.77 51.3898 29.99C54.7198 31.49 60.7498 32.68 61.8798 36.43C58.5798 39.04 50.9298 31.03 50.5698 38.27C51.5698 48.96 51.3098 59.97 55.2198 70.15C57.0698 76.31 61.5498 81.16 65.5998 85.96C69.4798 90.66 74.7198 93.97 80.0798 96.76C84.7698 98.97 89.8298 100.44 94.9498 101.36C97.0198 99.77 100.69 93.88 103.92 96.36C104.08 99.16 97.4998 102.2 103.61 101.9C107.2 100.82 109.69 104.67 112.65 101.19C115.37 104.42 123.97 99.13 122.03 105.72C119.41 107.41 115.59 106.39 112.96 108.72C108.63 106.56 105.19 110.65 100.4 110.14C95.0798 111.09 89.6698 111.48 84.2698 111.48C75.4198 110.78 66.3798 110.49 57.9698 107.41C53.2298 106.03 48.5998 103.33 44.4398 100.63ZM51.9098 103.87C56.5398 105.87 61.0698 107.98 66.1398 108.62C74.1898 109.74 82.5098 111.46 90.5898 109.89C86.9298 108.24 83.1498 110.53 79.5098 108.71C75.1398 109.65 70.4498 108.47 66.0098 107.89C60.9598 105.64 55.5098 104.09 50.7798 101.17C44.8698 99.01 53.8398 103.94 55.4298 104.34C59.1198 106.44 51.3698 103.26 50.2698 102.39C47.1798 100.65 46.7798 101.02 49.9598 102.78C50.5998 103.15 51.2398 103.55 51.9098 103.87ZM43.0998 97.64C47.5898 99.3 43.0798 94.48 41.0298 94.76C40.1198 93.18 37.5498 92.18 39.3598 91.33C36.0998 92.46 35.9398 87.03 34.4098 87.8C30.9598 86.71 33.0698 82.85 28.9598 80.48C28.5898 77.98 24.8798 75.82 23.6998 72.05C23.1798 70.12 19.5098 64.59 21.7598 69.74C23.6798 74.7 27.0498 78.95 29.8598 83.19C32.0398 87.23 34.6198 91.45 38.5798 93.97C39.9198 95.27 41.2098 97.24 43.0998 97.64ZM30.1698 83.45C30.9898 84.91 30.3298 82.77 30.1698 83.45ZM48.4698 99.63C49.4698 99.19 47.0398 99.07 48.4698 99.63ZM50.9098 100.52C50.6598 99.29 49.7998 101.21 50.9098 100.52ZM53.9598 101.79C55.4098 100.41 51.7198 100.92 53.9598 101.79ZM59.1798 104.7C60.0698 103.4 56.3598 104.21 59.1798 104.7ZM49.1498 97.71C51.3998 96.25 46.2398 97.69 49.1498 97.71ZM51.4398 98.85C51.3698 98.08 50.6198 99.19 51.4398 98.85ZM62.8698 105.98C64.7098 107.14 73.5998 108.52 68.0298 106.46C67.0998 106.66 57.6998 103.8 62.8698 105.98ZM44.7198 91.85C44.5398 91.08 41.8698 91 44.7198 91.85ZM50.0398 94.95C51.4298 93.99 47.1698 94.21 50.0398 94.95ZM54.5198 97.7C56.4998 96.95 51.2898 96.95 54.5198 97.7ZM42.5498 89.49C44.7098 91.14 51.2498 89.7 45.8498 88.5C43.3998 87.19 37.8598 86.3 41.6298 89.29L42.5498 89.49ZM57.5498 98.65C58.4498 97.12 53.7798 97.77 57.5498 98.65ZM52.9898 95.02C58.2598 96.51 48.5598 91.68 51.6898 94.47L52.3898 94.79L52.9898 95.02ZM62.1298 100.3C67.1198 100.35 57.6198 99.62 62.1298 100.3ZM40.6298 86.6C40.4398 85.67 39.3998 86.68 40.6298 86.6ZM70.5698 105.04C70.7098 103.36 68.9498 106.29 70.5698 105.04ZM49.1498 91.82C48.8498 90.94 47.5898 91.78 49.1498 91.82ZM41.1098 86.02C43.9698 85.85 37.1798 84.76 41.1098 86.02ZM31.5698 79.86C31.2098 78.48 28.4498 77.39 31.5698 79.86ZM56.5998 95.74C56.3498 95.87 56.0798 95.14 56.5998 95.74ZM72.1798 105.3C72.1298 104.39 71.3298 105.65 72.1798 105.3ZM55.2198 94.32C55.4998 93.14 52.7798 93.96 55.2198 94.32ZM43.6198 86.96C45.7498 86.73 40.1998 85.52 43.6198 86.96ZM63.2498 99.16C66.5698 97.84 60.0098 98.52 63.2498 99.16ZM53.0398 92.23C56.8698 92.72 48.4798 89.62 52.1998 91.95L53.0398 92.23ZM66.3498 100.42C69.9298 98.28 68.7498 105.43 72.4198 101.02C76.0398 98.38 69.2898 104.29 73.7498 101.49C76.9798 99.33 81.7398 102.51 84.7498 103.55C86.9098 103.44 89.0198 105.42 91.2398 104.22C95.5098 103.07 82.8798 102.51 86.1898 100.47C82.2798 101.61 79.3898 99.11 77.4698 96.61C73.0798 95.6 68.0098 93.36 65.8198 89.47C64.9298 88.01 67.1098 89.68 65.0498 87.29C62.4098 84.94 61.0898 82.27 59.3198 79.41C57.1998 78.28 56.9498 74.95 56.7398 79.3C56.7598 76.56 54.1798 74.71 53.5498 75.48C53.5398 72.84 56.3098 74.16 54.3698 72.21C53.9498 69.47 52.5798 66.62 52.1698 63.53C51.5298 62.04 52.0798 58.85 49.9798 62.22C49.2198 65.79 49.7298 57.84 50.9198 60.46C52.4798 57.79 50.3598 58.1 50.2698 58.47C51.2898 56.21 50.9098 53.01 49.9998 54.23C50.5398 51.84 50.8598 45.43 49.1898 46.57C50.1998 44.07 51.1098 35.13 46.7198 38.54C44.9398 38.57 41.8698 39.18 40.4098 39.91C44.9698 42.42 39.9498 40.82 38.0898 40.42C37.8498 42.75 36.0098 41.74 33.7098 41.76C37.3798 42.21 31.9198 45.51 29.8198 44.23C27.0798 45.54 32.1798 48.8 29.8698 49.81C30.1498 51.33 25.6798 49.26 26.0298 52.77C23.3798 51.65 25.6698 56.93 26.9898 55.15C31.4998 56.37 30.1698 59.16 30.2798 61.8C29.5398 63.34 26.6498 58.18 29.6398 58.42C27.2798 54.59 27.0298 57.04 25.0798 58.81C24.6298 58.94 30.0698 61.34 26.6498 62.53C29.6598 63 29.7498 65.63 30.3598 67.29C32.1698 69.17 31.7998 65.21 33.9598 67.47C32.5898 65.45 26.7098 61.79 31.4398 62.96C31.4098 60.93 30.5798 59.29 32.0398 59.33C33.4798 56.73 30.5298 65.75 33.7698 62.44C34.6698 62.05 34.8898 59.84 36.4998 62.65C38.8398 64.95 37.3498 66.62 34.0398 64.51C34.6298 66.52 38.4598 67.23 37.7398 70.37C38.4998 73.13 39.5698 72.11 40.4998 71.95C41.2298 74.63 41.6398 72.66 41.6798 71.38C45.0198 72.1 44.2398 74.07 45.2798 75.45C47.5798 76.49 41.9898 68.41 45.9398 73.02C50.0998 76.77 47.4998 78.34 43.7698 77.74C46.1298 77.55 46.8898 80.93 49.8398 80.81C52.5298 82.09 54.3598 87.01 49.7198 84.96C48.1098 83.51 42.4098 81.72 47.0698 84.48C51.3698 86.47 54.7798 87.66 58.9298 90.16C61.8898 92.28 63.1798 94.7 64.2998 95.18C61.8098 96.37 56.7898 94.23 60.5198 93.57C58.1898 93.15 55.5798 91.97 57.8098 94.87C59.6998 96.45 64.5198 96.29 65.3898 96.46C64.6598 98.07 63.3998 98.2 65.4198 98.32C63.1698 99.54 66.1398 99.73 66.3498 100.42ZM61.7498 87.42C60.3798 85.99 60.0298 83.31 61.5098 85.64C62.2598 85.94 63.9398 90.02 61.7498 87.42ZM76.7398 96.94C77.5898 96.88 76.7598 97.59 76.7398 96.94ZM59.5898 83.91C60.0798 85.58 59.5298 81.74 59.5898 83.91ZM58.0998 81.9C60.2698 82.85 56.3698 78.58 58.0998 81.9ZM40.0398 69.44C41.0498 69.17 40.5398 71.17 40.0398 69.44ZM54.4098 77.23C55.1398 79.19 55.0298 74.9 54.4098 77.23ZM44.2598 70.17C45.7598 71.38 43.5498 68.88 44.2598 70.17ZM52.9698 72.96C51.3398 69.31 54.1298 70.96 53.3298 73.56L52.9698 72.96ZM37.9498 62.95C37.2198 61.75 36.0198 58.23 36.3998 57.16C36.7498 58.91 40.1198 64.69 38.0498 59.55C35.7698 55.25 40.7798 60.95 41.2998 62.02C41.5398 63.09 39.8898 61.73 41.0098 64.23C38.9698 61.38 39.8098 65.81 37.9498 62.95ZM33.3098 59.75C34.3698 61.66 33.4998 56.96 33.3098 59.75ZM35.3898 60.47C37.0798 63.4 36.3898 58.36 35.3898 60.47ZM30.3698 56.58C28.6398 54.86 27.3898 53.28 30.4498 55.51C31.6298 55.56 27.8298 51.91 30.7298 54.35C33.7898 54.91 32.2398 59.36 30.3698 56.58ZM33.0098 56.51C34.0098 55.52 33.5398 57.49 33.0098 56.51ZM34.6298 57.03C36.4798 58.23 33.1098 54.18 34.6298 57.03ZM31.4098 53.95C26.3898 49.48 37.7198 56.29 32.2298 54.78L31.4098 53.95ZM45.7998 62.31C43.6198 61.01 45.2198 53.13 45.9598 58.52C48.0698 57.84 45.8398 61.3 47.4198 61.27C47.1798 63.45 46.4698 64.24 45.7998 62.31ZM51.1298 65.46C51.5798 67.08 51.3398 63.08 51.1298 65.46ZM50.1998 64.54C50.4398 63.53 50.2298 65.74 50.1998 64.54ZM32.3898 52.48C29.1598 48.03 41.7698 56.99 34.4598 53.61C33.6898 53.4 32.7698 53.33 32.3898 52.48ZM42.6498 57.91C43.3298 58.53 42.3398 54.16 42.6498 57.91ZM50.4298 62.91C51.0298 60.77 50.4798 64.32 50.4298 62.91ZM32.8898 50.78C34.8098 50.37 40.8398 54.15 35.2998 51.86C34.6798 51.17 33.3698 51.48 32.8898 50.78ZM49.3598 58.99C49.5598 55.15 50.5098 56.7 49.3698 59.54L49.3598 58.99ZM34.3098 49.44C35.0898 48.29 32.2298 44.26 34.7198 47.99C35.7998 48.84 37.8298 49.42 36.0298 49.78C38.8698 52.28 35.3498 50.46 34.3098 49.44ZM48.5498 57.79C49.0898 53.42 49.0198 60.35 48.5498 57.79ZM32.6798 45.41C33.2798 45.15 32.9998 46.2 32.6798 45.41ZM36.3898 47.62C38.1598 49.85 37.3498 45.61 36.3898 47.62ZM46.8598 53.44C47.0598 54.56 46.8598 52.67 46.8598 53.44ZM46.2598 52.1C47.6098 54 44.8098 48.51 46.2598 52.1ZM45.3698 49.75C46.1998 51.61 45.1198 48.27 45.3698 49.75ZM46.8198 47.39C45.8198 45.63 48.0798 39.64 48.3298 43.36C47.2798 46.25 48.0298 47.87 48.7598 43.99C50.1198 40.93 48.4698 50.01 46.8198 47.39ZM48.3098 38.48C48.7498 37.95 48.4098 39.13 48.3098 38.48ZM45.8198 87.6C45.8898 87.93 45.2298 87.08 45.8198 87.6ZM50.9498 90.2C53.8098 90.94 53.7898 89.76 51.2098 89.41C49.8198 88.12 45.4398 86.75 49.3598 89.25C49.6298 89.9 50.4498 89.88 50.9498 90.2ZM40.8098 83.46C42.3798 84.64 46.7398 86.78 43.0498 83.91C44.2898 82.47 40.6698 81.7 41.8698 80.73C38.8098 78.86 39.4598 79.03 41.5998 79.09C37.9298 77.45 42.1298 77.57 41.9298 76.73C40.5098 76.45 34.8998 74.23 38.1998 76.91C34.8398 75.2 37.3998 77.55 36.3798 77.3C32.9398 76.36 39.4398 79.92 35.8398 79.03C37.8098 80.59 41.1398 83.03 36.6698 80.68C36.0998 81.53 39.8798 82.82 40.8098 83.46ZM46.1798 86.55C52.7098 88.65 42.9798 83.97 46.1798 86.55ZM73.6798 103.2C73.7598 101.9 72.7798 104.31 73.6798 103.2ZM76.4998 104.39C78.0098 102.93 76.5598 106.72 78.9998 104.03C79.0298 102.11 78.9298 100.97 76.1998 103.31C75.4498 103.73 75.1098 105.5 76.4998 104.39ZM31.6498 76.22C31.1798 74.4 28.3998 74.41 31.6498 76.22ZM34.6598 78.2C33.5398 76.34 30.6598 76.52 34.6598 78.2ZM51.8298 88.55C53.5098 90.04 59.5298 89.64 53.8598 88.73C53.0298 87.49 48.5398 87.79 51.8298 88.55ZM75.4298 103.12C77.9998 100.96 72.9298 104.09 75.4298 103.12ZM80.7898 106.81C80.8098 106.12 79.6798 107.11 80.7898 106.81ZM80.7998 105.84C83.6598 102.81 78.0298 106.02 80.7998 105.84ZM24.2198 70.01C21.7898 66.54 22.7098 64.98 20.3598 62.14C19.9098 59.97 16.3298 55.05 18.5098 60.26C20.4998 63.31 21.0898 68.03 24.2198 70.01ZM79.8998 104.88C85.1598 101.48 77.7498 103.4 79.8998 104.88ZM83.9098 106.45C86.5498 104.19 82.2498 105.98 83.9098 106.45ZM30.7498 72.38C31.5098 71.26 28.8098 72.24 30.7498 72.38ZM83.0798 105.37C85.6298 103.73 82.4898 103.98 82.6198 105.52L83.0798 105.37ZM48.4998 83.58C48.4098 82.47 47.1498 83.67 48.4998 83.58ZM50.6398 84.81C49.9498 83.43 49.5898 85.02 50.6398 84.81ZM87.1698 106.48C90.4398 104.12 85.1898 106.03 86.4898 106.93L87.1698 106.48ZM85.9098 105.88C88.5798 103.65 83.1098 106.87 85.9098 105.88ZM92.2998 110.13C94.0898 108.94 90.1298 109.75 92.2998 110.13ZM32.3898 71.57C34.7798 72.11 41.9498 77.46 37.7198 71.94C35.5498 71.3 36.8498 66 34.6398 66.94C36.1198 69.42 35.8598 70.47 32.7398 68.91C28.8298 67 30.5398 69.85 31.3098 70.64C30.2698 70.89 32.6998 71.55 32.3898 71.57ZM21.4898 62.96C21.9198 61.19 17.5398 53.21 19.4198 58.96C20.0998 60.17 20.0298 62.45 21.4898 62.96ZM41.4998 75.3C41.4398 75.15 40.2698 74.27 41.4998 75.3ZM44.5298 76.01C44.5298 74.13 41.1798 75.24 44.5298 76.01ZM70.8298 92.58C70.3298 91.3 68.8498 92.56 70.8298 92.58ZM72.0898 93.51C71.9098 92.79 71.3698 93.65 72.0898 93.51ZM82.5198 100.07C83.5198 99.33 81.2698 99.98 82.5198 100.07ZM26.9298 64.35C29.7998 63.24 23.8598 63.56 26.9298 64.35ZM68.5198 90.55C68.4798 88.69 66.6898 91.01 68.5198 90.55ZM25.7998 61.71C27.6398 61.09 24.0898 61.3 25.7998 61.71ZM31.1398 64.3C31.1098 63.69 30.5798 64.53 31.1398 64.3ZM96.3598 104.29C98.7298 103.81 104.13 105.5 105 103.66C102.12 103.59 95.0498 101.63 94.7198 104.12L95.3498 104.22L96.3598 104.29ZM32.8398 64.73C32.8898 62.85 31.3798 64.66 32.8398 64.73ZM18.7898 54.98C18.1498 51.4 16.3598 54.44 18.7898 54.98ZM22.1398 55.82C22.1798 54.67 19.0698 54.79 22.1398 55.82ZM24.0498 56.76C23.6198 57.33 23.4998 56.32 24.0498 56.76ZM36.1098 64.49C36.6798 63.97 34.7598 64.11 36.1098 64.49ZM22.7798 54.64C22.4498 51.93 18.8998 54.24 22.7798 54.64ZM15.9098 50.18C15.8098 48.93 15.2398 50.65 15.9098 50.18ZM16.9298 49.41C16.7598 47.93 16.0498 49.6 16.9298 49.41ZM22.5798 52.78C24.9698 51.84 18.2298 50.84 22.0898 52.6L22.5798 52.78ZM98.1698 99.47C99.6998 98.07 96.2298 99.04 98.1698 99.47ZM107.3 104.21C107.91 102.4 105.76 104.44 107.3 104.21ZM23.1498 49.82C23.4098 48.07 21.2598 50.17 23.1498 49.82ZM15.1198 44.44C14.6898 41.97 14.7498 37.62 18.8798 39.09C13.3698 40.19 22.6998 45.94 21.5198 41.4C23.8398 41.51 26.0498 40.03 24.8398 42.28C29.4098 41.78 32.5698 37.82 36.9798 38.37C40.4198 37.91 44.1698 37.57 47.8698 36.19C50.9098 35.97 53.8398 32.69 52.1798 30.75C48.0298 30.4 43.6798 30.92 39.0998 31.83C34.0198 32.89 29.3998 34.89 24.2698 35.76C19.2698 36.43 25.2698 37.61 23.8398 37.87C21.2298 38.77 26.9498 39.39 23.4998 40.34C21.3698 39.93 19.1498 39.2 20.0598 36.96C15.2698 37.58 11.0598 39.57 14.8498 44.44H15.1198ZM26.6598 38.56C27.7798 34.42 32.6698 41.96 28.4998 39.11C27.9998 38.73 27.1798 38.43 26.6598 38.56ZM26.8798 36.55C28.4998 35.35 27.7398 37.23 26.8798 36.55ZM28.9398 36.59C29.0898 34.69 33.6498 37.6 29.6898 37.27L28.9398 36.59ZM31.7498 35.45C32.7798 34.25 32.0498 36.52 31.7498 35.45ZM32.4698 34.97C34.1798 32.91 42.1598 33.66 36.3198 34.77C34.7598 33.59 33.5598 35.47 32.4698 34.97ZM42.8898 33.37C48.0698 35.36 42.6298 27.75 42.8898 33.37ZM45.8498 33.35C46.9298 30.52 50.0498 32.21 46.3498 32.78C46.4298 33.08 46.2398 34.24 45.8498 33.35ZM21.9898 48.37C25.2198 46.39 18.5598 46.65 21.9898 48.37ZM24.3798 49.03C25.5098 47.83 21.9198 48.54 24.3798 49.03ZM17.3398 44.04C19.1898 42.62 15.1598 43.5 17.3398 44.04ZM112.69 103.69C112.74 102.04 111.28 104.43 112.69 103.69ZM103 97.08C103.28 95.18 101.76 97.24 103 97.08ZM115.36 104.33C117.94 104.34 123.18 103.53 117.56 103.53C116.68 103.66 112.43 103.64 115.36 104.33ZM26.4798 47.87C28.5698 47.73 29.7498 45.57 26.0698 45.69C20.3798 45.1 31.0898 47.64 25.3398 46.91C24.5698 47.42 26.4298 48.01 26.4798 47.87ZM28.3198 48.8C28.0998 47.46 27.6698 49.51 28.3198 48.8ZM30.4998 42.98C31.3998 41.86 29.2398 42.68 30.4998 42.98ZM23.5498 31.38C27.2798 30.11 32.3698 28.69 34.1298 32C32.3398 29.85 33.4098 27.72 35.0998 30.88C37.4898 34.07 38.6898 29.43 37.1298 28.36C38.8998 30.56 40.9198 31.6 38.3198 28.5C41.1498 25.1 32.6598 28.95 30.7298 28.91C29.8098 29.32 21.1498 31.11 23.5498 31.38ZM25.7398 27.2C27.8698 25.6 33.0898 28.16 29.7398 25.61C29.4098 25.31 22.3898 27.54 25.7398 27.2ZM33.4898 27.52C35.9798 27.58 32.4198 24.18 35.3798 25.72C34.8898 24.13 31.9298 23.83 30.4798 23.2C29.6598 24.65 32.1398 27.54 33.4898 27.52ZM27.0998 20.48C27.9598 19.32 25.5898 21.08 27.0998 20.48ZM30.2598 21.24C34.2698 20.71 29.2398 19.52 29.4498 21.2L30.2598 21.24ZM24.3498 16.62C21.5298 12.93 29.6598 17.24 26.7898 13.38C24.3798 11.46 22.0598 15.54 24.3498 16.62ZM60.5598 36.12C61.8498 33.83 55.2198 33.03 59.6898 35.31C60.1098 35.45 60.0098 36.28 60.5598 36.12Z" fill="white"/>
</svg>
