<svg xmlns="http://www.w3.org/2000/svg" xml:space="preserve" style="enable-background:new 0 0 128 128" viewBox="0 0 128 128"><linearGradient id="a" x1="-10.148" x2="109.446" y1="1394.636" y2="1291.742" gradientTransform="matrix(.563 0 0 -.568 5.745 798.077)" gradientUnits="userSpaceOnUse"><stop offset="0" style="stop-color:#5a9fd4"/><stop offset="1" style="stop-color:#306998"/></linearGradient><path d="M63.2 2.4c-5 0-9.8.5-14 1.2-12.5 2.2-14.7 6.8-14.7 15.3V30h29.4v3.8H23.5c-8.6 0-16 5.1-18.4 14.9-2.7 11.3-2.8 18.2 0 30 2.1 8.7 7.1 14.9 15.6 14.9h10.1V80.1c0-9.7 8.4-18.3 18.4-18.3h29.4c8.2 0 14.7-6.7 14.7-14.9v-28c0-8-6.7-14-14.7-15.3-5.1-.9-10.3-1.2-15.4-1.2zm-15.9 9c3.1 0 5.5 2.5 5.5 5.6s-2.5 5.6-5.5 5.6c-3.1 0-5.5-2.5-5.5-5.6s2.6-5.6 5.5-5.6z" style="fill:url(#a)"/><linearGradient id="b" x1="155.651" x2="112.946" y1="1229.496" y2="1289.915" gradientTransform="matrix(.563 0 0 -.568 5.745 798.077)" gradientUnits="userSpaceOnUse"><stop offset="0" style="stop-color:#ffd43b"/><stop offset="1" style="stop-color:#ffe873"/></linearGradient><path d="M96.9 33.8v13.1c0 10.1-8.6 18.7-18.4 18.7H49.3c-8.1 0-14.7 6.9-14.7 14.9v28c0 8 6.9 12.6 14.7 14.9 9.3 2.7 18.2 3.3 29.4 0 7.4-2.1 14.7-6.5 14.7-14.9V97.2H63.9v-3.8H108c8.6 0 11.8-6 14.7-14.9 3.1-9.2 3-18.1 0-29.9-2.1-8.5-6.2-14.9-14.7-14.9H96.9v.1zm-16.4 70.9c3.1 0 5.5 2.5 5.5 5.6s-2.5 5.6-5.5 5.6c-3.1 0-5.5-2.5-5.5-5.6-.1-3.1 2.4-5.6 5.5-5.6z" style="fill:url(#b)"/><radialGradient id="c" cx="2247.514" cy="520.282" r="25.758" gradientTransform="matrix(0 -.24 -1.055 0 612.979 656.776)" gradientUnits="userSpaceOnUse"><stop offset="0" style="stop-color:#b8b8b8;stop-opacity:.498"/><stop offset="1" style="stop-color:#7f7f7f;stop-opacity:0"/></radialGradient><path d="M96.1 117.6c0 3.4-14.3 6.2-31.9 6.2s-31.9-2.8-31.9-6.2c0-3.4 14.3-6.2 31.9-6.2s31.9 2.8 31.9 6.2z" style="opacity:.444;fill:url(#c);enable-background:new"/></svg>